<svg width="40" height="40" viewBox="0 0 40 40" fill="none" xmlns="http://www.w3.org/2000/svg">
<rect opacity="0.01" width="40" height="40" fill="white"/>
<rect opacity="0.01" x="8" y="8" width="24" height="24" fill="white"/>
<path fill-rule="evenodd" clip-rule="evenodd" d="M19.9704 9.75C18.369 9.75 17.0384 9.80708 15.9589 10.028C14.8659 10.2517 13.9651 10.6561 13.2883 11.3975C12.6195 12.1302 12.2474 13.1074 12.0341 14.3191C11.8212 15.5287 11.7544 17.0474 11.7544 18.929C11.7544 19.6551 11.7531 20.3368 11.752 20.9764L11.752 20.9766C11.7465 24.0013 11.7428 26.0807 11.8791 27.4369C11.9605 28.2461 12.1008 28.9329 12.4093 29.4262C12.5753 29.6915 12.7956 29.9113 13.0817 30.0577C13.3627 30.2015 13.6594 30.25 13.9434 30.25C14.5921 30.25 15.2212 29.8931 15.729 29.5403C16.2242 29.1962 16.7455 28.7508 17.2385 28.3295L17.24 28.3282L17.3568 28.2284C17.9017 27.7633 18.4135 27.3339 18.8938 27.0186C19.392 26.6915 19.7422 26.566 19.9704 26.566C20.1985 26.566 20.5487 26.6915 21.0469 27.0186C21.5272 27.3339 22.039 27.7633 22.584 28.2284L22.7007 28.3282L22.7028 28.33C23.1957 28.7512 23.7167 29.1964 24.2117 29.5403C24.7195 29.8931 25.3486 30.25 25.9974 30.25C26.2813 30.25 26.578 30.2015 26.859 30.0577C27.1451 29.9113 27.3655 29.6915 27.5314 29.4262C27.8399 28.9329 27.9802 28.2461 28.0616 27.4369C28.1979 26.0816 28.1942 24.0039 28.1888 20.9823L28.1888 20.9766C28.1876 20.337 28.1864 19.6552 28.1864 18.929C28.1864 17.0474 28.1195 15.5287 27.9066 14.3191C27.6933 13.1074 27.3212 12.1302 26.6524 11.3975C25.9756 10.6561 25.0748 10.2517 23.9818 10.028C22.9024 9.80708 21.5717 9.75 19.9704 9.75ZM13.2544 18.929C13.2544 17.0621 13.3224 15.6529 13.5114 14.5792C13.7 13.5076 13.9968 12.8462 14.3962 12.4088C14.7875 11.98 15.354 11.6829 16.2597 11.4975C17.1789 11.3094 18.3782 11.25 19.9704 11.25C21.5625 11.25 22.7619 11.3094 23.6811 11.4975C24.5867 11.6829 25.1532 11.98 25.5446 12.4088C25.9439 12.8462 26.2407 13.5076 26.4293 14.5792C26.6183 15.6529 26.6864 17.0621 26.6864 18.929C26.6864 19.6729 26.6875 20.3657 26.6886 21.0109C26.6938 24.0367 26.6971 26.014 26.5691 27.2868C26.4903 28.0713 26.3706 28.4535 26.2596 28.6309C26.2158 28.7009 26.1866 28.7168 26.1758 28.7223C26.1599 28.7305 26.1124 28.75 25.9974 28.75C25.8486 28.75 25.554 28.6464 25.0676 28.3085C24.6367 28.009 24.1705 27.6109 23.6587 27.1737L23.658 27.1731L23.5578 27.0876C23.0237 26.6317 22.442 26.1401 21.8702 25.7647C21.3162 25.401 20.6557 25.066 19.9704 25.066C19.285 25.066 18.6245 25.401 18.0706 25.7647C17.4987 26.1401 16.917 26.6317 16.3829 27.0876L16.2827 27.1732L16.2806 27.175C15.7694 27.6116 15.3037 28.0093 14.8731 28.3085C14.3868 28.6464 14.0921 28.75 13.9434 28.75C13.8284 28.75 13.7808 28.7305 13.7649 28.7223C13.7541 28.7168 13.7249 28.7009 13.6811 28.6309C13.5702 28.4535 13.4505 28.0713 13.3716 27.2868C13.2436 26.0141 13.247 24.0369 13.2521 21.0115L13.2521 21.011C13.2532 20.3658 13.2544 19.6729 13.2544 18.929ZM16.5426 16.4677C16.1284 16.4677 15.7926 16.8035 15.7926 17.2177C15.7926 17.6319 16.1284 17.9677 16.5426 17.9677H23.3976C23.8118 17.9677 24.1476 17.6319 24.1476 17.2177C24.1476 16.8035 23.8118 16.4677 23.3976 16.4677H16.5426Z" fill="#A9A9A9"/>
</svg>
